<svg class="svg-icon" style="width: 1.0009765625em; height: 1em;vertical-align: middle;fill: currentColor;overflow: hidden;" viewBox="0 0 1025 1024" version="1.1" xmlns="http://www.w3.org/2000/svg"><path d="M996.932919 170.249667h-262.141271a28.431808 28.431808 0 0 1 0-56.863616h262.141271a28.431808 28.431808 0 0 1 0 56.863616z m-482.260329 398.045313a55.498889 55.498889 0 0 0 28.431808 55.271435 396.794314 396.794314 0 0 1 296.714349 400.433585H0.796091a400.319858 400.319858 0 0 1 298.647712-400.433585 58.740116 58.740116 0 0 0 25.929809-55.442026c-88.422923-42.477121-125.896046-168.543758-125.896046-285.227899 0-155.237672 85.295424-283.465127 220.744558-283.465126s220.744558 128.227454 220.744557 283.465126c0 116.911595-37.643714 243.091959-126.294091 285.739672z m220.119058-227.454465a28.431808 28.431808 0 0 1 0-56.863616h157.284762a28.431808 28.431808 0 0 1 0 56.863616h-157.284762z m-26.214127 142.159041a27.408263 27.408263 0 0 1 26.214127-28.431808h262.141271a28.431808 28.431808 0 0 1 0 56.863616h-262.141271a27.408263 27.408263 0 0 1-26.214127-28.090627z" fill="#0078D7" /></svg>